<svg
    xmlns="http://www.w3.org/2000/svg"
    viewBox="0 0 512 512"
    id="vector">
    <path
        id="path"
        d="M 346 332 L 376 332 L 376 362 L 346 362 Z"
        fill="#6fddf4"/>
    <path
        id="path_1"
        d="M 286 512 C 335.626 512 376 471.626 376 422 L 376 420.491 C 410.192 413.523 436 383.22 436 347 C 436 305.645 402.355 272 361 272 C 319.645 272 286 305.645 286 347 C 286 383.219 311.808 413.522 346 420.491 L 346 422 C 346 455.084 319.084 482 286 482 C 252.916 482 226 455.084 226 422 L 226 271.162 C 293.406 263.676 346 206.369 346 137 L 346 45 C 346 20.187 325.813 0 301 0 L 256 0 L 256 30 L 301 30 C 309.271 30 316 36.729 316 45 L 316 137 C 316 194.897 268.897 242 211 242 C 153.103 242 106 194.897 106 137 L 106 45 C 106 36.729 112.729 30 121 30 L 166 30 L 166 0 L 121 0 C 96.187 0 76 20.187 76 45 L 76 137 C 76 206.369 128.594 263.676 196 271.162 L 196 422 C 196 471.626 236.374 512 286 512 Z M 316 347 C 316 322.187 336.187 302 361 302 C 385.813 302 406 322.187 406 347 C 406 371.813 385.813 392 361 392 C 336.187 392 316 371.813 316 347 Z"
        fill="#6fddf4"/>
</svg>
