<svg
    xmlns="http://www.w3.org/2000/svg"
    viewBox="0 0 423 423"
    id="vector">
    <path
        id="path"
        d="M 118.13 285.888 L 64.13 285.888 C 58.63 285.888 54.13 290.388 54.13 295.888 L 54.13 332.888 C 54.13 338.388 58.63 342.888 64.13 342.888 L 118.13 342.888 C 123.63 342.888 128.13 338.388 128.13 332.888 L 128.13 295.888 C 128.13 290.388 123.63 285.888 118.13 285.888 Z M 108.13 322.888 L 74.13 322.888 L 74.13 305.888 L 108.13 305.888 L 108.13 322.888 Z"
        fill="#7283dd"/>
    <path
        id="path_1"
        d="M 319.13 285.888 L 265.13 285.888 C 259.63 285.888 255.13 290.388 255.13 295.888 L 255.13 332.888 C 255.13 338.388 259.63 342.888 265.13 342.888 L 319.13 342.888 C 324.63 342.888 329.13 338.388 329.13 332.888 L 329.13 295.888 C 329.13 290.388 324.63 285.888 319.13 285.888 Z M 309.13 322.888 L 275.13 322.888 L 275.13 305.888 L 309.13 305.888 L 309.13 322.888 Z"
        fill="#7283dd"/>
    <path
        id="path_2"
        d="M 226.73 321.888 L 157.13 321.888 C 151.63 321.888 147.13 326.388 147.13 331.888 C 147.13 337.388 151.53 341.888 157.13 341.888 L 226.73 341.888 C 232.23 341.888 236.73 337.388 236.73 331.888 C 236.73 326.388 232.23 321.888 226.73 321.888 Z"
        fill="#7283dd"/>
    <path
        id="path_3"
        d="M 226.73 293.888 L 157.13 293.888 C 151.63 293.888 147.13 298.388 147.13 303.888 C 147.13 309.388 151.53 313.888 157.13 313.888 L 226.73 313.888 C 232.23 313.888 236.73 309.388 236.73 303.888 C 236.73 298.388 232.23 293.888 226.73 293.888 Z"
        fill="#7283dd"/>
    <path
        id="path_4"
        d="M 398.03 48.488 L 309.33 1.188 C 306.33 -0.412 302.83 -0.412 299.83 1.288 L 213.33 48.588 C 210.13 50.288 208.03 53.688 208.03 57.388 L 208.03 124.388 C 208.13 139.588 210.83 154.688 216.13 168.988 L 101.53 168.988 C 88.23 168.988 76.13 176.988 70.93 189.288 L 46.23 246.788 L 36.23 256.288 C 26.53 264.688 20.93 276.988 21.03 289.888 L 21.03 391.088 C 20.83 409.088 35.23 423.788 53.23 423.988 C 53.33 423.988 53.33 423.988 53.43 423.988 L 72.43 423.988 C 90.53 423.888 105.13 409.188 105.03 391.088 L 105.03 378.888 L 278.03 378.888 L 278.03 390.988 C 278.23 409.188 292.93 423.888 311.13 423.888 L 330.13 423.888 C 348.23 423.788 362.93 409.188 363.03 390.988 L 363.03 287.188 C 363.03 275.088 358.03 263.588 349.33 255.288 L 342.33 247.888 L 337.73 237.788 C 378.23 213.788 403.03 170.188 402.93 123.088 L 402.93 57.388 C 403.23 53.588 401.23 50.188 398.03 48.488 Z M 89.33 197.188 C 91.43 192.188 96.23 188.988 101.53 188.888 L 225.33 188.888 C 228.23 194.088 231.43 199.088 234.93 203.888 C 218.13 210.388 205.83 225.088 202.43 242.888 L 69.83 242.888 L 89.33 197.188 Z M 249.83 220.888 C 259.03 229.588 269.33 236.988 280.53 242.888 L 223.03 242.888 C 226.83 230.888 237.33 222.288 249.83 220.888 Z M 85.13 390.988 C 85.23 397.988 79.63 403.788 72.53 403.888 L 53.53 403.888 C 46.43 403.888 41.13 398.088 41.13 390.988 L 41.13 376.688 C 45.03 378.288 49.33 378.988 53.53 378.888 L 85.13 378.888 L 85.13 390.988 Z M 343.13 390.988 C 343.13 398.088 337.33 403.888 330.23 403.888 L 311.23 403.888 C 304.13 403.888 298.23 398.188 298.13 390.988 L 298.13 378.888 L 330.23 378.888 C 334.63 378.988 339.03 378.288 343.13 376.688 L 343.13 390.988 Z M 343.13 287.088 L 343.13 346.488 C 343.13 353.588 337.33 358.888 330.23 358.888 L 53.53 358.888 C 46.83 359.088 41.33 353.788 41.13 347.088 C 41.13 346.888 41.13 346.688 41.13 346.488 L 41.13 289.788 C 41.03 282.688 44.13 275.988 49.43 271.288 C 49.53 271.188 49.53 271.188 49.63 271.088 L 58.53 262.888 L 328.93 262.888 L 335.03 269.188 C 335.13 269.288 335.33 269.388 335.53 269.588 C 340.33 274.188 343.13 280.488 343.13 287.088 Z M 383.13 122.988 C 383.23 168.588 355.93 209.788 313.83 227.488 L 304.33 231.588 L 296.23 228.088 C 254.93 210.088 228.13 169.288 228.03 124.188 L 228.03 63.188 L 304.33 21.288 L 383.13 63.288 L 383.13 122.988 Z"
        fill="#7283dd"/>
    <path
        id="path_5"
        d="M 354.33 100.988 C 350.83 96.688 344.53 96.088 340.23 99.588 L 293.43 137.688 L 276.43 117.788 C 272.83 113.588 266.53 113.088 262.33 116.688 C 258.13 120.288 257.63 126.588 261.23 130.788 L 284.53 158.088 C 284.63 158.188 284.73 158.288 284.83 158.388 C 284.93 158.488 285.03 158.688 285.23 158.788 C 285.43 158.888 285.53 159.088 285.63 159.188 C 285.73 159.288 285.93 159.388 286.03 159.488 C 286.13 159.588 286.33 159.688 286.53 159.788 C 286.63 159.888 286.83 159.988 286.93 160.088 C 287.13 160.188 287.23 160.288 287.43 160.388 C 287.53 160.488 287.73 160.588 287.83 160.588 C 288.03 160.688 288.23 160.788 288.43 160.788 C 288.53 160.888 288.73 160.888 288.83 160.988 C 289.03 161.088 289.23 161.088 289.43 161.188 C 289.53 161.188 289.73 161.288 289.83 161.288 C 290.03 161.288 290.23 161.388 290.43 161.388 C 290.53 161.388 290.73 161.488 290.83 161.488 C 291.13 161.488 291.33 161.488 291.63 161.488 C 291.73 161.488 291.83 161.488 291.93 161.488 C 292.23 161.488 292.53 161.488 292.83 161.488 C 292.93 161.488 292.93 161.488 293.03 161.488 C 293.23 161.488 293.53 161.388 293.73 161.388 C 293.83 161.388 293.93 161.388 294.03 161.288 C 294.23 161.288 294.43 161.188 294.63 161.188 C 294.73 161.188 294.83 161.088 294.93 161.088 C 295.13 161.088 295.23 160.988 295.43 160.888 C 295.53 160.888 295.63 160.788 295.83 160.788 C 295.93 160.688 296.13 160.688 296.23 160.588 C 296.33 160.488 296.43 160.488 296.63 160.388 C 296.83 160.288 296.93 160.288 297.03 160.188 C 297.13 160.088 297.23 159.988 297.43 159.988 C 297.53 159.888 297.73 159.788 297.83 159.788 C 297.93 159.788 298.03 159.588 298.23 159.488 C 298.33 159.388 298.43 159.388 298.53 159.288 L 352.93 115.088 C 357.23 111.588 357.83 105.288 354.33 100.988 Z"
        fill="#7283dd"/>
</svg>
