<svg
    xmlns="http://www.w3.org/2000/svg"
    viewBox="0 0 512 512"
    id="vector">
    <path
        id="path"
        d="M 156.254 372.689 C 156.706 372.797 157.169 372.851 157.633 372.851 L 223.889 372.851 C 225.477 380.746 228.017 388.419 231.453 395.702 C 238.953 411.842 250.102 425.764 262.043 433.902 L 335.869 484.202 C 336.865 484.88 338.042 485.243 339.247 485.243 C 340.452 485.243 341.629 484.88 342.625 484.202 L 416.451 433.902 C 438.62 418.802 455.986 385.989 455.986 359.202 L 455.986 255.692 C 455.986 254.57 455.671 253.471 455.078 252.519 C 454.485 251.567 453.636 250.8 452.629 250.306 L 341.89 195.97 C 341.068 195.567 340.165 195.357 339.25 195.357 C 338.335 195.357 337.432 195.567 336.61 195.97 L 293.963 216.836 C 297.811 171.895 283.355 139.769 269.994 120.297 C 254.412 97.585 237.186 86.86 236.46 86.415 C 235.194 85.638 233.684 85.358 232.224 85.63 C 230.764 85.902 229.455 86.706 228.554 87.887 C 227.652 89.067 227.22 90.541 227.342 92.021 C 228.055 103.552 227.538 115.126 225.801 126.547 C 224.159 136.78 221.49 145.359 217.871 152.047 C 216.156 155.298 213.983 158.287 211.419 160.921 L 211.824 158.413 C 215.351 136.559 218.998 113.96 212.901 92.413 C 200.572 48.841 162.655 29.242 150.238 27.033 C 146.038 26.286 142.989 27.174 141.175 29.673 C 137.505 34.73 138.73 43.999 140.862 56.543 C 141.253 58.843 141.623 61.016 141.726 62.158 C 143.287 79.387 144.126 97.577 135.896 113.966 C 127.666 130.355 114.686 145.673 102.132 160.483 C 77.932 189.026 52.916 218.542 56.325 259.709 C 60.559 310.824 104.453 360.453 156.254 372.689 Z M 339.243 208.038 L 443.986 259.432 L 443.986 359.2 C 443.986 382.042 428.604 411.1 409.695 423.982 L 339.247 471.982 L 268.799 423.982 C 258.599 417.031 248.949 404.882 242.335 390.648 C 237.288 379.785 234.508 368.617 234.508 359.2 L 234.508 259.282 Z M 111.286 168.238 C 124.295 152.891 137.749 137.02 146.621 119.345 C 156.263 100.136 155.321 79.193 153.677 61.072 C 153.531 59.463 153.161 57.285 152.693 54.528 C 151.762 49.561 151.132 44.543 150.806 39.5 C 161.639 43.04 191.163 59.663 201.354 95.681 C 206.728 114.672 203.296 135.938 199.977 156.502 C 199.145 161.658 198.285 166.989 197.584 172.173 C 197.4 173.539 197.691 174.928 198.41 176.104 C 199.129 177.281 200.232 178.174 201.532 178.633 C 202.832 179.092 204.251 179.09 205.549 178.626 C 235.073 168.077 239.434 125.745 239.666 103.992 C 247.54 110.941 254.508 118.852 260.408 127.539 C 278.915 154.761 285.908 186.894 281.226 223.069 L 225.872 250.152 C 224.863 250.645 224.013 251.412 223.418 252.365 C 222.823 253.318 222.508 254.419 222.508 255.542 L 222.508 359.2 C 222.508 359.747 222.522 360.3 222.536 360.853 L 158.343 360.853 C 136.069 355.428 114.554 342.053 97.693 323.133 C 80.578 303.933 70.134 281.053 68.284 258.717 C 65.285 222.5 87.629 196.146 111.286 168.238 Z"
        fill="#f7be68"/>
    <path
        id="path_1"
        d="M 129.847 312.889 C 139.588 322.293 151.467 329.196 164.46 333.005 C 165.999 333.364 167.619 333.101 168.966 332.273 C 170.312 331.446 171.278 330.118 171.653 328.583 C 172.027 327.048 171.78 325.425 170.965 324.07 C 170.151 322.716 168.834 321.736 167.302 321.347 C 156.362 318.035 146.366 312.164 138.146 304.221 C 119.446 286.316 112.304 260.621 116.926 227.846 C 117.107 226.589 116.885 225.307 116.292 224.185 C 115.699 223.063 114.764 222.157 113.624 221.599 C 112.483 221.041 111.195 220.86 109.944 221.08 C 108.694 221.301 107.546 221.913 106.665 222.827 C 105.784 223.742 105.216 224.912 105.043 226.17 C 98.577 272.027 114.962 298.639 129.847 312.889 Z"
        fill="#f7be68"/>
    <path
        id="path_2"
        d="M 321.65 373.981 C 322.77 375.074 324.275 375.686 325.839 375.686 C 327.404 375.686 328.909 375.074 330.029 373.981 L 390.294 315.2 C 391.209 314.317 391.82 313.166 392.039 311.914 C 392.257 310.661 392.072 309.371 391.51 308.231 C 390.948 307.09 390.038 306.157 388.912 305.567 C 387.786 304.977 386.501 304.76 385.244 304.948 C 383.986 305.135 382.82 305.717 381.915 306.61 L 325.84 361.306 L 296.579 332.767 C 295.676 331.864 294.508 331.273 293.246 331.08 C 291.984 330.886 290.692 331.101 289.56 331.692 C 288.428 332.283 287.514 333.22 286.951 334.366 C 286.389 335.512 286.206 336.809 286.431 338.066 C 286.655 339.323 287.275 340.476 288.2 341.356 Z"
        fill="#f7be68"/>
</svg>
