<svg
    xmlns="http://www.w3.org/2000/svg"
    viewBox="0 0 64 64"
    id="vector">
    <path
        id="path"
        d="M 61.517 38.645 L 61.503 38.621 C 60.863 37.646 59.885 36.942 58.758 36.643 C 57.631 36.344 56.432 36.471 55.393 37 L 48.985 40.277 C 48.218 39.2 47.088 38.434 45.803 38.119 C 44.519 37.805 43.163 37.963 41.985 38.564 L 33.915 42.7 C 33.494 42.917 33.027 43.029 32.553 43.026 C 32.08 43.023 31.614 42.905 31.196 42.683 L 25.696 39.763 C 23.615 38.652 21.266 38.139 18.911 38.282 C 16.556 38.424 14.286 39.217 12.354 40.571 L 11.733 37.609 C 11.697 37.437 11.616 37.277 11.498 37.146 C 11.38 37.015 11.23 36.918 11.063 36.863 C 10.895 36.809 10.716 36.8 10.544 36.837 L 2.789 38.51 C 2.531 38.566 2.305 38.721 2.161 38.943 C 2.017 39.164 1.967 39.434 2.021 39.692 L 6.536 61.205 C 6.582 61.43 6.705 61.633 6.883 61.779 C 7.061 61.925 7.284 62.005 7.514 62.005 C 7.585 62.005 7.655 61.997 7.724 61.983 L 15.483 60.313 C 15.741 60.257 15.967 60.102 16.111 59.88 C 16.255 59.658 16.305 59.389 16.251 59.13 L 15.851 57.205 L 18.502 56.634 C 19.275 56.469 20.07 56.438 20.853 56.544 L 33.321 57.911 C 35.909 58.253 38.535 57.637 40.7 56.179 L 60.673 42.779 C 61.326 42.337 61.78 41.656 61.938 40.884 C 62.096 40.112 61.944 39.307 61.517 38.645 Z M 8.286 59.811 L 4.186 40.256 L 9.986 39.006 L 14.086 58.562 Z M 59.56 41.121 L 39.587 54.521 C 37.817 55.709 35.671 56.207 33.558 55.921 L 21.09 54.554 C 20.087 54.419 19.067 54.459 18.078 54.674 L 15.436 55.242 L 12.8 42.7 L 13.483 42.224 C 15.114 41.076 17.031 40.404 19.022 40.281 C 21.012 40.159 22.998 40.591 24.757 41.53 L 30.257 44.45 C 30.96 44.824 31.743 45.022 32.539 45.027 C 33.335 45.032 34.12 44.845 34.828 44.481 L 42.9 40.34 C 43.707 39.928 44.642 39.841 45.51 40.097 C 46.379 40.353 47.117 40.934 47.571 41.718 C 47.704 41.948 47.742 42.221 47.676 42.478 C 47.609 42.735 47.445 42.955 47.217 43.092 L 36.089 49.692 C 34.144 50.852 31.825 51.219 29.617 50.717 L 19.581 48.317 L 19.117 50.263 L 29.162 52.663 C 31.872 53.284 34.721 52.836 37.109 51.412 L 48.237 44.812 C 48.693 44.538 49.068 44.149 49.323 43.682 C 49.579 43.216 49.706 42.69 49.692 42.159 L 56.3 38.778 C 56.898 38.474 57.588 38.401 58.236 38.572 C 58.885 38.743 59.449 39.148 59.819 39.707 L 59.83 39.724 C 59.974 39.947 60.026 40.217 59.976 40.477 C 59.926 40.737 59.777 40.968 59.56 41.121 Z"
        fill="#f7be68"/>
    <path
        id="path_1"
        d="M 6.516 41.792 L 8.473 41.381 L 8.884 43.336 L 6.926 43.748 Z"
        fill="#f7be68"/>
    <path
        id="path_2"
        d="M 31.411 39.808 C 31.582 39.933 31.788 40 32 40 C 32.212 40 32.418 39.933 32.589 39.808 C 42.623 32.489 48.8 25.51 51.044 19 L 56.184 19 C 56.42 19.667 56.884 20.23 57.494 20.588 C 58.105 20.946 58.822 21.076 59.52 20.957 C 60.217 20.837 60.85 20.475 61.306 19.934 C 61.762 19.393 62.012 18.708 62.012 18 C 62.012 17.292 61.762 16.607 61.306 16.066 C 60.85 15.525 60.217 15.163 59.52 15.043 C 58.822 14.924 58.105 15.054 57.494 15.412 C 56.884 15.77 56.42 16.333 56.184 17 L 51.6 17 C 51.77 16.263 51.889 15.515 51.955 14.761 C 52.132 13.242 52 11.704 51.568 10.237 C 51.136 8.771 50.413 7.406 49.441 6.226 C 48.455 4.912 47.176 3.846 45.706 3.113 C 44.236 2.379 42.616 1.998 40.973 2 C 37.672 2.129 34.509 3.369 32 5.518 C 29.491 3.369 26.328 2.129 23.027 2 C 21.384 1.998 19.763 2.379 18.293 3.113 C 16.823 3.846 15.544 4.912 14.557 6.226 C 13.586 7.407 12.863 8.771 12.431 10.237 C 11.999 11.704 11.868 13.243 12.044 14.761 C 12.647 22.446 19.163 30.874 31.411 39.808 Z M 59 17 C 59.265 17 59.52 17.105 59.707 17.293 C 59.895 17.48 60 17.735 60 18 C 60 18.265 59.895 18.52 59.707 18.707 C 59.52 18.895 59.265 19 59 19 C 58.735 19 58.48 18.895 58.293 18.707 C 58.105 18.52 58 18.265 58 18 C 58 17.735 58.105 17.48 58.293 17.293 C 58.48 17.105 58.735 17 59 17 Z M 16.044 7.563 C 16.091 7.517 16.133 7.466 16.169 7.411 C 16.971 6.351 18.007 5.492 19.197 4.9 C 20.387 4.308 21.698 4 23.027 4 C 27.661 4 31.257 7.529 31.293 7.564 C 31.417 7.688 31.572 7.778 31.742 7.823 C 31.911 7.869 32.09 7.869 32.259 7.823 C 32.429 7.778 32.584 7.688 32.708 7.564 C 32.744 7.527 36.314 4 40.973 4 C 42.303 3.995 43.615 4.301 44.806 4.893 C 45.997 5.485 47.033 6.348 47.831 7.411 C 47.867 7.466 47.909 7.517 47.956 7.563 C 48.749 8.539 49.335 9.666 49.68 10.876 C 50.025 12.085 50.121 13.352 49.962 14.6 C 49.895 15.41 49.758 16.213 49.552 17 L 41.58 17 L 37.868 10.5 C 37.743 10.28 37.54 10.115 37.299 10.039 C 37.058 9.963 36.796 9.981 36.568 10.09 C 36.34 10.199 36.161 10.39 36.068 10.625 L 31.123 23 L 27.955 12.706 C 27.879 12.459 27.71 12.25 27.483 12.125 C 27.256 12 26.99 11.967 26.74 12.034 C 26.49 12.101 26.275 12.263 26.142 12.485 L 23.433 17 L 17 17 L 17 19 L 24 19 C 24.173 19 24.342 18.955 24.492 18.87 C 24.642 18.785 24.768 18.663 24.857 18.515 L 26.7 15.438 L 30.041 26.294 C 30.103 26.491 30.224 26.664 30.388 26.789 C 30.551 26.914 30.75 26.986 30.956 26.994 L 31 26.994 C 31.2 26.994 31.395 26.934 31.561 26.822 C 31.727 26.71 31.855 26.551 31.929 26.365 L 37.159 13.288 L 40.132 18.488 C 40.218 18.643 40.344 18.771 40.497 18.861 C 40.649 18.951 40.823 18.999 41 19 L 48.9 19 C 47.049 23.712 42.445 30.032 32 37.759 C 17.909 27.335 14.449 19.468 14.044 14.68 C 13.873 13.42 13.962 12.138 14.306 10.914 C 14.65 9.69 15.242 8.55 16.044 7.563 Z"
        fill="#f7be68"/>
    <path
        id="path_3"
        d="M 2 17 L 10 17 L 10 19 L 2 19 Z"
        fill="#f7be68"/>
</svg>
