<svg
    xmlns="http://www.w3.org/2000/svg"
    viewBox="0 0 512 512"
    id="vector">
    <path
        id="path"
        d="M 459.669 82.906 L 263.669 1.529 C 258.759 -0.509 253.24 -0.51 248.331 1.529 L 52.331 82.906 C 44.866 86.006 40 93.294 40 101.377 L 40 200.302 C 40 336.515 122.329 459.042 248.442 510.517 C 253.286 512.494 258.713 512.494 263.558 510.517 C 389.669 459.043 472 336.516 472 200.302 L 472 101.377 C 472 93.294 467.135 86.006 459.669 82.906 Z M 432 200.302 C 432 316.097 364 422.694 256 470.276 C 150.886 423.965 80 319.235 80 200.302 L 80 114.729 L 256 41.655 L 432 114.729 Z M 233.894 267.716 L 319.858 181.753 C 327.668 173.943 340.331 173.942 348.142 181.753 C 355.953 189.564 355.952 202.227 348.141 210.037 L 248.036 310.142 C 240.224 317.954 227.561 317.951 219.752 310.142 L 163.858 254.248 C 156.047 246.437 156.047 233.774 163.858 225.964 C 171.669 218.154 184.332 218.153 192.142 225.964 Z"
        fill="#7283dd"/>
</svg>
