<svg
    xmlns="http://www.w3.org/2000/svg"
    viewBox="0 0 493 493"
    id="vector">
    <path
        id="path"
        d="M 486.02 259.145 L 476.133 259.145 L 453.973 54.075 C 453.512 50.055 450.063 47.048 446.02 47.145 L 384.719 47.145 C 380.676 47.047 377.227 50.055 376.766 54.075 L 354.606 259.145 L 348.973 259.145 L 348.973 221.61 C 349.055 218.872 347.7 216.294 345.399 214.809 C 343.11 213.352 340.219 213.215 337.801 214.446 L 258.973 253.739 L 258.973 221.61 C 258.946 218.762 257.418 216.137 254.957 214.708 C 254 214.157 252.937 213.802 251.84 213.673 C 261.289 195.06 266.199 174.474 266.168 153.603 C 266.168 80.201 206.445 20.486 133.047 20.486 C 59.649 20.486 0 80.205 0 153.603 C 0.043 205.755 30.516 253.087 77.973 274.716 L 77.973 465.802 C 77.973 470.22 81.411 474.146 85.828 474.146 L 486.019 474.146 C 490.492 473.978 494.019 470.279 493.972 465.802 L 493.972 267.603 C 493.972 263.185 490.437 259.146 486.019 259.146 Z M 446.371 133.145 L 384.371 133.145 L 387.047 108.145 L 443.703 108.145 Z M 438.836 63.145 L 441.973 92.145 L 388.774 92.145 L 391.907 63.145 Z M 382.637 149.145 L 448.098 149.145 L 460.036 259.145 L 370.696 259.145 Z M 15.926 153.602 C 15.926 88.922 68.36 36.489 133.039 36.489 C 197.719 36.489 250.152 88.923 250.152 153.602 C 250.152 218.286 197.718 270.715 133.039 270.715 C 68.387 270.645 15.996 218.254 15.926 153.602 Z M 477.973 458.145 L 93.973 458.145 L 93.973 280.821 C 106.641 284.77 119.84 286.759 133.11 286.719 C 172.036 286.731 209.012 269.676 234.274 240.059 L 242.973 235.227 L 242.973 266.653 C 242.946 269.411 244.356 271.985 246.692 273.454 C 248.954 274.911 251.825 275.048 254.219 273.813 L 332.973 234.524 L 332.973 267.602 C 332.973 272.02 336.985 275.145 341.403 275.145 L 477.973 275.145 Z M 477.973 458.145"
        fill="#6fddf4"/>
    <path
        id="path_1"
        d="M 207.973 363.145 C 207.973 358.727 204.391 355.145 199.973 355.145 L 135.973 355.145 C 131.555 355.145 127.973 358.727 127.973 363.145 L 127.973 418.145 C 127.973 422.563 131.555 426.145 135.973 426.145 L 199.973 426.145 C 204.391 426.145 207.973 422.563 207.973 418.145 Z M 191.973 410.145 L 143.973 410.145 L 143.973 371.145 L 191.973 371.145 Z M 191.973 410.145"
        fill="#6fddf4"/>
    <path
        id="path_2"
        d="M 325.973 363.145 C 325.973 358.727 322.391 355.145 317.973 355.145 L 253.973 355.145 C 249.555 355.145 245.973 358.727 245.973 363.145 L 245.973 418.145 C 245.973 422.563 249.555 426.145 253.973 426.145 L 317.973 426.145 C 322.391 426.145 325.973 422.563 325.973 418.145 Z M 309.973 410.145 L 261.973 410.145 L 261.973 371.145 L 309.973 371.145 Z M 309.973 410.145"
        fill="#6fddf4"/>
    <path
        id="path_3"
        d="M 444.973 363.145 C 444.973 358.727 441.391 355.145 436.973 355.145 L 372.973 355.145 C 368.555 355.145 364.973 358.727 364.973 363.145 L 364.973 418.145 C 364.973 422.563 368.555 426.145 372.973 426.145 L 436.973 426.145 C 441.391 426.145 444.973 422.563 444.973 418.145 Z M 380.973 371.145 L 427.973 371.145 L 427.973 410.145 L 380.973 410.145 Z M 380.973 371.145"
        fill="#6fddf4"/>
    <path
        id="path_4"
        d="M 199.629 320.145 L 136.09 320.145 C 131.672 320.145 128.09 323.727 128.09 328.145 C 128.09 332.563 131.672 336.145 136.09 336.145 L 199.629 336.145 C 204.047 336.145 207.629 332.563 207.629 328.145 C 207.629 323.727 204.047 320.145 199.629 320.145 Z M 199.629 320.145"
        fill="#6fddf4"/>
    <path
        id="path_5"
        d="M 317.695 320.145 L 254.156 320.145 C 249.738 320.145 246.156 323.727 246.156 328.145 C 246.156 332.563 249.738 336.145 254.156 336.145 L 317.695 336.145 C 322.113 336.145 325.695 332.563 325.695 328.145 C 325.695 323.727 322.113 320.145 317.695 320.145 Z M 317.695 320.145"
        fill="#6fddf4"/>
    <path
        id="path_6"
        d="M 372.695 336.145 L 436.234 336.145 C 440.652 336.145 444.234 332.563 444.234 328.145 C 444.234 323.727 440.652 320.145 436.234 320.145 L 372.695 320.145 C 368.277 320.145 364.695 323.727 364.695 328.145 C 364.695 332.563 368.277 336.145 372.695 336.145 Z M 372.695 336.145"
        fill="#6fddf4"/>
    <path
        id="path_7"
        d="M 140.973 221.301 L 140.973 159.215 C 140.914 155.824 142.243 152.559 144.641 150.168 C 147.043 147.773 150.317 146.461 153.704 146.531 C 157.044 146.508 160.263 147.781 162.681 150.082 C 165.04 152.543 166.372 155.809 166.4 159.215 C 166.4 163.633 169.982 167.215 174.4 167.215 C 178.818 167.215 182.4 163.633 182.4 159.215 C 182.33 155.832 183.642 152.563 186.037 150.168 C 188.432 147.773 191.701 146.461 195.084 146.531 C 198.412 146.508 201.623 147.773 204.037 150.066 C 205.377 151.57 207.174 155.964 208.037 159.183 C 209.06 163.074 212.814 165.597 216.803 165.081 C 220.792 164.565 223.776 161.167 223.776 157.143 C 223.608 107.151 183.034 66.709 133.042 66.709 C 83.05 66.709 42.476 107.15 42.312 157.143 C 42.312 161.163 45.292 164.557 49.277 165.073 C 53.261 165.593 57.015 163.077 58.043 159.19 C 58.895 156.006 60.645 151.706 61.981 150.135 C 64.426 147.842 67.645 146.553 70.993 146.526 C 74.333 146.503 77.548 147.776 79.962 150.077 C 82.321 152.538 83.65 155.804 83.677 159.21 C 83.677 163.628 87.259 167.21 91.677 167.21 C 96.095 167.21 99.677 163.628 99.677 159.21 C 99.607 155.827 100.919 152.558 103.314 150.163 C 105.709 147.768 108.978 146.456 112.361 146.526 C 115.689 146.503 118.896 147.776 121.295 150.077 C 123.643 152.542 124.959 155.811 124.979 159.214 L 124.979 221.3 C 124.999 222.55 124.342 223.718 123.264 224.351 C 122.182 224.98 120.842 224.98 119.764 224.351 C 118.682 223.718 118.026 222.55 118.045 221.3 C 118.045 216.882 114.467 213.304 110.053 213.304 C 105.639 213.304 102.061 216.882 102.061 221.3 C 102.01 228.284 105.706 234.761 111.749 238.269 C 117.792 241.777 125.249 241.777 131.288 238.269 C 137.331 234.761 141.03 228.285 140.979 221.3 Z M 112.355 130.531 C 104.832 130.566 97.605 133.484 92.164 138.683 C 92.047 138.792 91.934 138.906 91.82 139.023 L 91.672 139.183 C 91.621 139.132 91.57 139.078 91.524 139.023 C 91.473 138.972 91.411 138.91 91.356 138.851 C 83.829 131.449 72.872 128.722 62.754 131.742 C 73.457 102.144 101.555 82.422 133.027 82.418 C 164.5 82.41 192.605 102.121 203.316 131.715 C 193.281 128.762 182.433 131.422 174.898 138.684 C 174.781 138.793 174.668 138.907 174.558 139.024 C 174.507 139.079 174.456 139.133 174.406 139.184 L 174.258 139.024 C 174.203 138.965 174.145 138.907 174.09 138.852 C 168.66 133.508 161.344 130.516 153.723 130.532 C 146.2 130.567 138.973 133.485 133.532 138.684 C 133.415 138.793 133.302 138.907 133.192 139.024 L 133.04 139.184 C 132.993 139.133 132.942 139.079 132.892 139.024 C 132.845 138.969 132.779 138.911 132.724 138.852 C 127.294 133.504 119.974 130.516 112.357 130.532 Z M 112.355 130.531"
        fill="#6fddf4"/>
</svg>
