<svg
    xmlns="http://www.w3.org/2000/svg"
    viewBox="0 0 64 64"
    id="vector">
    <path
        id="path"
        d="M 36 24 C 36.265 24 36.52 23.895 36.707 23.707 C 36.895 23.52 37 23.265 37 23 C 37 21.674 36.473 20.402 35.536 19.464 C 34.598 18.527 33.326 18 32 18 C 30.674 18 29.402 18.527 28.464 19.464 C 27.527 20.402 27 21.674 27 23 C 27 23.265 27.105 23.52 27.293 23.707 C 27.48 23.895 27.735 24 28 24 Z M 32 20 C 32.62 20.001 33.225 20.193 33.732 20.551 C 34.238 20.909 34.621 21.416 34.829 22 L 29.171 22 C 29.379 21.416 29.762 20.909 30.268 20.551 C 30.775 20.193 31.38 20.001 32 20 Z"
        fill="#3dbf78"/>
    <path
        id="path_1"
        d="M 2.8 26.979 L 12.741 29.052 C 12.272 29.581 12.004 30.258 11.984 30.964 C 11.964 31.67 12.192 32.361 12.63 32.916 C 13.068 33.47 13.687 33.853 14.379 33.998 C 15.07 34.142 15.791 34.038 16.414 33.705 C 17.037 33.372 17.523 32.829 17.787 32.174 C 18.051 31.519 18.075 30.791 17.857 30.119 L 26.8 31.985 C 28.279 33.161 30.114 33.801 32.004 33.8 C 33.894 33.799 35.728 33.156 37.206 31.978 L 46.147 30.116 C 46.054 30.402 46.004 30.7 46 31 C 45.994 31.783 46.295 32.537 46.838 33.101 C 47.38 33.665 48.123 33.995 48.905 34.02 C 49.687 34.045 50.449 33.763 51.026 33.234 C 51.603 32.705 51.951 31.971 51.995 31.19 C 52.039 30.408 51.775 29.64 51.261 29.05 L 61.2 26.979 C 61.442 26.929 61.657 26.79 61.803 26.591 C 61.949 26.392 62.016 26.145 61.991 25.899 C 61.966 25.654 61.851 25.426 61.668 25.259 C 61.485 25.093 61.247 25.001 61 25 L 40.953 25 Q 41 24.507 41 24 C 41.018 21.408 40.047 18.903 38.287 17 L 46 17 C 46.265 17 46.52 16.895 46.707 16.707 C 46.895 16.52 47 16.265 47 16 C 47 15.735 46.895 15.48 46.707 15.293 C 46.52 15.105 46.265 15 46 15 L 35.531 15 C 34.732 14.622 33.877 14.374 33 14.264 L 33 5 C 33 4.735 32.895 4.48 32.707 4.293 C 32.52 4.105 32.265 4 32 4 C 31.735 4 31.48 4.105 31.293 4.293 C 31.105 4.48 31 4.735 31 5 L 31 14.264 C 30.123 14.374 29.268 14.622 28.469 15 L 18 15 C 17.735 15 17.48 15.105 17.293 15.293 C 17.105 15.48 17 15.735 17 16 C 17 16.265 17.105 16.52 17.293 16.707 C 17.48 16.895 17.735 17 18 17 L 25.713 17 C 23.953 18.903 22.982 21.408 23 24 Q 23 24.507 23.047 25 L 3 25 C 2.753 25.001 2.515 25.093 2.332 25.259 C 2.149 25.426 2.034 25.654 2.009 25.899 C 1.984 26.145 2.051 26.392 2.197 26.591 C 2.343 26.79 2.558 26.929 2.8 26.979 Z M 15 32 C 14.735 32 14.48 31.895 14.293 31.707 C 14.105 31.52 14 31.265 14 31 C 14 30.735 14.105 30.48 14.293 30.293 C 14.48 30.105 14.735 30 15 30 C 15.265 30 15.52 30.105 15.707 30.293 C 15.895 30.48 16 30.735 16 31 C 16 31.265 15.895 31.52 15.707 31.707 C 15.52 31.895 15.265 32 15 32 Z M 49 32 C 48.735 32 48.48 31.895 48.293 31.707 C 48.105 31.52 48 31.265 48 31 C 48 30.735 48.105 30.48 48.293 30.293 C 48.48 30.105 48.735 30 49 30 C 49.265 30 49.52 30.105 49.707 30.293 C 49.895 30.48 50 30.735 50 31 C 50 31.265 49.895 31.52 49.707 31.707 C 49.52 31.895 49.265 32 49 32 Z M 40.565 27 L 51.3 27 L 39.47 29.465 C 39.943 28.696 40.311 27.867 40.565 27 Z M 32 16.2 C 35.859 16.2 39 19.7 39 24 C 39 28.3 35.859 31.8 32 31.8 C 28.141 31.8 25 28.3 25 24 C 25 19.7 28.141 16.2 32 16.2 Z M 23.435 27 C 23.69 27.869 24.06 28.699 24.535 29.47 L 12.693 27 Z"
        fill="#3dbf78"/>
    <path
        id="path_2"
        d="M 61.5 36.622 C 60.861 35.647 59.884 34.942 58.757 34.643 C 57.631 34.344 56.433 34.471 55.394 35 L 48.985 38.278 C 48.218 37.201 47.088 36.434 45.804 36.12 C 44.519 35.805 43.163 35.963 41.985 36.564 L 33.917 40.7 C 33.495 40.916 33.028 41.027 32.554 41.023 C 32.081 41.02 31.615 40.903 31.196 40.681 L 25.696 37.761 C 23.615 36.651 21.266 36.139 18.911 36.281 C 16.557 36.424 14.287 37.216 12.355 38.57 L 11.733 35.608 C 11.697 35.436 11.616 35.276 11.498 35.145 C 11.381 35.015 11.23 34.917 11.063 34.863 C 10.896 34.808 10.717 34.799 10.545 34.836 L 2.79 36.509 C 2.532 36.564 2.305 36.72 2.161 36.942 C 2.017 37.163 1.967 37.433 2.021 37.692 L 6.536 59.206 C 6.583 59.431 6.706 59.632 6.885 59.777 C 7.063 59.921 7.286 60 7.515 60 C 7.586 60 7.657 59.993 7.726 59.978 L 15.483 58.307 C 15.741 58.251 15.967 58.096 16.111 57.874 C 16.255 57.652 16.305 57.383 16.251 57.124 L 15.851 55.2 L 18.502 54.629 C 19.275 54.464 20.07 54.434 20.853 54.54 L 33.321 55.906 C 35.908 56.25 38.534 55.636 40.7 54.179 L 60.673 40.779 C 61.329 40.334 61.784 39.647 61.938 38.87 C 62.093 38.092 61.935 37.284 61.5 36.622 Z M 8.287 57.811 L 4.187 38.255 L 9.987 37.006 L 14.09 56.562 Z M 59.561 39.121 L 39.588 52.521 C 37.817 53.708 35.672 54.206 33.559 53.921 L 21.09 52.554 C 20.086 52.42 19.067 52.46 18.077 52.674 L 15.436 53.242 L 12.8 40.7 L 13.483 40.223 C 15.114 39.076 17.032 38.404 19.022 38.282 C 21.013 38.159 22.999 38.591 24.758 39.53 L 30.258 42.45 C 30.961 42.823 31.744 43.021 32.54 43.027 C 33.336 43.032 34.122 42.845 34.83 42.482 L 42.9 38.34 C 43.707 37.928 44.642 37.84 45.511 38.097 C 46.379 38.353 47.117 38.934 47.571 39.718 C 47.704 39.948 47.742 40.22 47.676 40.477 C 47.61 40.734 47.446 40.956 47.219 41.093 L 36.091 47.693 C 34.145 48.852 31.827 49.219 29.618 48.718 L 19.582 46.318 L 19.117 48.263 L 29.164 50.663 C 31.874 51.283 34.722 50.834 37.11 49.41 L 48.239 42.81 C 48.694 42.536 49.069 42.146 49.324 41.68 C 49.58 41.214 49.707 40.688 49.692 40.157 L 56.3 36.778 C 56.901 36.473 57.595 36.4 58.246 36.575 C 58.898 36.75 59.462 37.16 59.83 37.725 C 59.975 37.947 60.027 38.217 59.977 38.477 C 59.927 38.738 59.778 38.968 59.561 39.121 Z"
        fill="#3dbf78"/>
    <path
        id="path_3"
        d="M 6.516 39.79 L 8.474 39.38 L 8.884 41.335 L 6.926 41.746 Z"
        fill="#3dbf78"/>
</svg>
