<svg
    xmlns="http://www.w3.org/2000/svg"
    viewBox="0 0 512 512"
    id="vector">
    <path
        id="path"
        d="M 497 175 C 478.046 175 461.005 164.468 452.527 147.515 L 450.417 143.293 C 447.876 138.21 442.682 135 437 135 L 357 135 C 351.318 135 346.124 138.21 343.583 143.292 L 341.473 147.514 C 339.965 150.53 338.181 153.338 336.168 155.925 C 317.152 133.426 288.941 120 258.963 120 L 258.234 120 C 255.963 110.428 251.578 101.67 245.589 94.25 L 301.807 30 L 375 30 C 383.284 30 390 23.284 390 15 C 390 6.716 383.284 0 375 0 L 295 0 C 290.675 0 286.56 1.867 283.711 5.123 L 240 55.078 L 240 45 C 240 20.187 219.813 0 195 0 C 170.187 0 150 20.187 150 45 L 150 55.078 L 106.289 5.123 C 103.44 1.867 99.325 0 95 0 L 15 0 C 6.716 0 0 6.716 0 15 C 0 23.284 6.716 30 15 30 L 88.193 30 L 144.411 94.25 C 138.422 101.67 134.036 110.428 131.766 120 L 131.037 120 C 75.325 120 30 165.325 30 221.038 C 30 231.917 31.744 242.666 35.185 252.989 L 81.653 392.393 C 89.15 414.887 110.119 430 133.83 430 L 140 430 L 140 457 C 140 487.327 164.673 512 195 512 C 225.327 512 250 487.327 250 457 L 250 430 L 256.17 430 C 279.88 430 300.848 414.887 308.348 392.392 L 315.264 371.644 C 335.116 396.907 361.799 415.1 392.69 424.368 C 394.096 424.79 395.548 425.001 397.001 425.001 C 398.454 425.001 399.905 424.79 401.312 424.368 C 433.546 414.698 461.204 395.314 481.293 368.314 C 501.382 341.312 512 309.251 512 275.597 L 512 190 C 512 181.716 505.284 175 497 175 Z M 195 100 C 214.299 100 230 115.701 230 135 C 230 154.299 214.299 170 195 170 C 175.701 170 160 154.299 160 135 C 160 115.701 175.701 100 195 100 Z M 195 30 C 203.271 30 210 36.729 210 45 L 210 71.766 C 205.181 70.623 200.163 70 195 70 C 189.837 70 184.819 70.623 180 71.766 L 180 45 C 180 36.729 186.729 30 195 30 Z M 220 457 C 220 470.785 208.785 482 195 482 C 181.215 482 170 470.785 170 457 L 170 373 C 170 359.215 181.215 348 195 348 C 208.785 348 220 359.215 220 373 Z M 279.887 382.905 C 276.479 393.13 266.947 400 256.17 400 L 250 400 L 250 373 C 250 342.673 225.327 318 195 318 C 164.673 318 140 342.673 140 373 L 140 400 L 133.83 400 C 123.053 400 113.521 393.13 110.113 382.905 L 63.646 243.502 C 61.227 236.245 60 228.687 60 221.038 C 60 181.867 91.867 150 131.037 150 L 131.766 150 C 138.558 178.631 164.322 200 195 200 C 225.678 200 251.442 178.631 258.234 150 L 258.963 150 C 278.987 150 297.897 158.525 311.206 172.952 C 306.674 174.29 301.902 175 297 175 C 288.716 175 282 181.716 282 190 L 282 275.597 C 282 297.29 286.419 318.318 294.935 337.759 Z M 482 275.597 C 482 329.853 448.029 376.982 397 394.257 C 345.971 376.982 312 329.853 312 275.597 L 312 203.602 C 334.701 199.317 354.437 185.402 366.125 164.999 L 427.875 164.999 C 439.563 185.401 459.299 199.317 482 203.602 Z"
        fill="#3dbf78"/>
    <path
        id="path_1"
        d="M 428.82 241.109 L 382.857 287.071 L 365.179 269.393 C 359.322 263.535 349.824 263.535 343.966 269.393 C 338.108 275.251 338.108 284.748 343.966 290.606 L 372.25 318.89 C 375.179 321.819 379.018 323.284 382.856 323.284 C 386.694 323.284 390.534 321.819 393.462 318.89 L 450.031 262.322 C 455.889 256.465 455.889 246.967 450.031 241.109 C 444.177 235.251 434.679 235.251 428.82 241.109 Z"
        fill="#3dbf78"/>
</svg>
